{"title":"The F1 Show 15.03.13 (HD.720p.H264.AC3) TBK","uid":8261689,"size":1542605066,"categoryP":"video","categoryS":"hd___tv_shows","magnet":"?xt=urn:btih:5277fbc60c63aa660a80b1ed1198601e31720d72&amp;dn=The+F1+Show+15.03.13+%28HD.720p.H264.AC3%29+TBK&amp;tr=udp%3A%2F%2Ftracker.openbittorrent.com%3A80&amp;tr=udp%3A%2F%2Fopen.demonii.com%3A1337&amp;tr=udp%3A%2F%2Ftracker.coppersurfer.tk%3A6969&amp;tr=udp%3A%2F%2Fexodus.desync.com%3A6969","seeders":1,"leechers":0,"uploader":"jorrell073","files":-1,"time":1363396513,"description":"The F1 Show\n\nAired: 15th March 2013. 9:30 am\n\nNatalie Pinkham and Ted Kravitz bring you all the latest stories and features from Melbourne, Australia.\n\nTo reduce SKY's LIVE sync errors with audio during add-breaks, commercials have been left intact to reduce\nplayback problems as the live stream switches from Dolby Digitalto Standard Stereo output during add breaks\nand vice versa, which plays havoc with encoding the feed as AC3 Digital.\n\n\nAll torrents for F1 2013 are MKV format with 720p resolution &amp; AC3 Dolby Digital Audio.\nThese video files should play smoothly with the standard media players such as VLC, WMP, KM Player, WMC, MP-HC.\n\n**For those having mkv playback issues on Windows 7 or 8, I recommend Shark Codec Packs which are available free here:\n\nFOR ALL YOUR LATEST F1 NEWS, GOSSIP AND DISCUSSION PLUS FULL TORRENT INFORMATION IN DETAIL AND MUCH MORE PLEASE VISIT MY FORUM: http://www.f1racingleague.co.uk/f82-formula-1-2013-torrents\n\nFollow my Twitter For All F1 Info here:\n\nAs Usual, Please feel free to leave your comments or suggestions, or just simply a 'thanks' within the thread.\n\nMuch Appreciated,\n\nThank you\n\n\nTheblacknight\n\n\nFile Details:\n\nComplete name : R:Recorded TVThe F1 Show 15.03.13F1 Show (HD.720p.H264.AC3) 15.03.13_0001.mkv\nFormat : Matroska\nFormat version : Version 2\nFile size : 1.44 GiB\nDuration : 55mn 52s\nOverall bit rate : 3 681 Kbps\nWriting application : libmatroska 1.3.0\nWriting library : SolveigMM Matroska Muxer Version 1.0.1208.20\n\nVideo\nID : 1\nFormat : AVC\nFormat/Info : Advanced Video Codec\nFormat profile : &lt;a class=&quot;__cf_email__&quot; href=&quot;/cdn-cgi/l/email-protection&quot; data-cfemail=&quot;6129080609212d524f50&quot;&gt;[email&amp;#160;protected]&lt;/a&gt;&lt;script cf-hash='f9e31' type=&quot;text/javascript&quot;&gt;\n/* &lt;![CDATA[ */!function(){try{var t=&quot;currentScript&quot;in document?document.currentScript:function(){for(var t=document.getElementsByTagName(&quot;script&quot;),e=t.length;e--;)if(t[e].getAttribute(&quot;cf-hash&quot;))return t[e]}();if(t&amp;&amp;t.previousSibling){var e,r,n,i,c=t.previousSibling,a=c.getAttribute(&quot;data-cfemail&quot;);if(a){for(e=&quot;&quot;,r=parseInt(a.substr(0,2),16),n=2;a.length-n;n+=2)i=parseInt(a.substr(n,2),16)^r,e+=String.fromCharCode(i);e=document.createTextNode(e),c.parentNode.replaceChild(e,c)}}}catch(u){}}();/* ]]&gt; */&lt;/script&gt;\nFormat settings, CABAC : Yes\nFormat settings, ReFrames : 4 frames\nCodec ID : V_MPEG4/ISO/AVC\nDuration : 55mn 52s\nBit rate : 3 223 Kbps\nWidth : 1 280 pixels\nHeight : 720 pixels\nDisplay aspect ratio : 16:9\nFrame rate mode : Constant\nFrame rate : 25.000 fps\nColor space : YUV\nChroma subsampling : 4:2:0\nBit depth : 8 bits\nScan type : Progressive\nBits/(Pixel*Frame) : 0.140\nStream size : 1.26 GiB (88%)\nLanguage : English\nDefault : No\nForced : No\nColor primaries : BT.709\nTransfer characteristics : BT.709\nMatrix coefficients : BT.709\n\nAudio\nID : 2\nFormat : AC-3\nFormat/Info : Audio Coding 3\nMode extension : CM (complete main)\nFormat settings, Endianness : Big\nCodec ID : A_AC3\nDuration : 55mn 52s\nBit rate mode : Constant\nBit rate : 384 Kbps\nChannel(s) : 2 channels\nChannel positions : Front: L R\nSampling rate : 48.0 KHz\nBit depth : 16 bits\nCompression mode : Lossy\nDelay relative to video : 29ms\nStream size : 153 MiB (10%)\nLanguage : English\nDefault : No\nForced : No","torrent":{"xt":"urn:btih:5277fbc60c63aa660a80b1ed1198601e31720d72","amp;dn":"The+F1+Show+15.03.13+%28HD.720p.H264.AC3%29+TBK","amp;tr":["udp%3A%2F%2Ftracker.openbittorrent.com%3A80","udp%3A%2F%2Fopen.demonii.com%3A1337","udp%3A%2F%2Ftracker.coppersurfer.tk%3A6969","udp%3A%2F%2Fexodus.desync.com%3A6969"],"infoHash":"5277fbc60c63aa660a80b1ed1198601e31720d72","infoHashBuffer":{"type":"Buffer","data":[82,119,251,198,12,99,170,102,10,128,177,237,17,152,96,30,49,114,13,114]},"announce":[],"urlList":[]}}